HIERARCHY
ROOT hip
{
  OFFSET 0.00112043 5.09927 -9.65472
  CHANNELS 6 Xposition Yposition Zposition Zrotation Xrotation Yrotation
  JOINT abdomen
  {
    OFFSET 0 -1.186 -1.5018
    CHANNELS 3 Zrotation Xrotation Yrotation
    JOINT abdomen2
    {
      OFFSET 0 9.964 0.2134
      CHANNELS 3 Zrotation Xrotation Yrotation
      JOINT chest
      {
        OFFSET 0 13.134 -3.2573
        CHANNELS 3 Zrotation Xrotation Yrotation
        JOINT neck
        {
          OFFSET 0 20.686 -1.6905
          CHANNELS 3 Zrotation Xrotation Yrotation
          JOINT head
          {
            OFFSET 0 7.238 -0.1237
            CHANNELS 3 Zrotation Xrotation Yrotation
            End Site
            {
              OFFSET 0 0 0
            }
          }
        }
        JOINT lCollar
        {
          OFFSET 1.7069 20.075 5.0056
          CHANNELS 3 Zrotation Xrotation Yrotation
          JOINT lShldr
          {
            OFFSET 13.6458 -0.047 -4.849
            CHANNELS 3 Zrotation Xrotation Yrotation
            JOINT lForeArm
            {
              OFFSET 28.3255 -0.9759 2.2888
              CHANNELS 3 Zrotation Xrotation Yrotation
              JOINT lHand
              {
                OFFSET 22.1583 -0.53 10.8316
                CHANNELS 3 Zrotation Xrotation Yrotation
                JOINT lThumb1
                {
                  OFFSET 0.786 0.112 2.5817
                  CHANNELS 3 Zrotation Xrotation Yrotation
                  JOINT lThumb2
                  {
                    OFFSET 0.3601 -0.878 4.2331
                    CHANNELS 3 Zrotation Xrotation Yrotation
                    JOINT lThumb2_End
                    {
                      OFFSET 1.8127 -1.216 2.2227
                      CHANNELS 3 Zrotation Xrotation Yrotation
                      End Site
                      {
                        OFFSET 0.0181 -0.0122 0.0222
                      }
                    }
                  }
                }
                JOINT lCarpal1
                {
                  OFFSET 0.9571 1.114 1.7695
                  CHANNELS 3 Zrotation Xrotation Yrotation
                  JOINT lIndex1
                  {
                    OFFSET 4.1246 0.487 4.1451
                    CHANNELS 3 Zrotation Xrotation Yrotation
                    JOINT lIndex2
                    {
                      OFFSET 3.4052 -1.454 2.7682
                      CHANNELS 3 Zrotation Xrotation Yrotation
                      JOINT lIndex2_End
                      {
                        OFFSET 1.4531 -1.795 1.2713
                        CHANNELS 3 Zrotation Xrotation Yrotation
                        End Site
                        {
                          OFFSET 0.0145 -0.0179 0.0127
                        }
                      }
                    }
                  }
                  JOINT lMid1
                  {
                    OFFSET 5.6954 0.21 2.1184
                    CHANNELS 3 Zrotation Xrotation Yrotation
                    JOINT lMid2
                    {
                      OFFSET 3.9766 -1.54 2.3863
                      CHANNELS 3 Zrotation Xrotation Yrotation
                      JOINT lMid2_End
                      {
                        OFFSET 1.4042 -1.926 1.125
                        CHANNELS 3 Zrotation Xrotation Yrotation
                        End Site
                        {
                          OFFSET 0.014 -0.0193 0.0113
                        }
                      }
                    }
                  }
                }
                JOINT lCarpal2
                {
                  OFFSET 2.0956 0.66 -0.3894
                  CHANNELS 3 Zrotation Xrotation Yrotation
                  JOINT lRing1
                  {
                    OFFSET 5.0395 -0.09 2.4971
                    CHANNELS 3 Zrotation Xrotation Yrotation
                    JOINT lRing2
                    {
                      OFFSET 3.7921 -1.552 1.4806
                      CHANNELS 3 Zrotation Xrotation Yrotation
                      JOINT lRing2_End
                      {
                        OFFSET 1.4655 -1.808 0.9609
                        CHANNELS 3 Zrotation Xrotation Yrotation
                        End Site
                        {
                          OFFSET 0.0147 -0.0181 0.0096
                        }
                      }
                    }
                  }
                  JOINT lPinky1
                  {
                    OFFSET 4.9141 -1.269 0.3591
                    CHANNELS 3 Zrotation Xrotation Yrotation
                    JOINT lPinky2
                    {
                      OFFSET 3.1477 -1.685 0.8462
                      CHANNELS 3 Zrotation Xrotation Yrotation
                      JOINT lPinky2_End
                      {
                        OFFSET 0.8055 -1.585 0.7955
                        CHANNELS 3 Zrotation Xrotation Yrotation
                        End Site
                        {
                          OFFSET 0.0081 -0.0158 0.008
                        }
                      }
                    }
                  }
                }
              }
            }
          }
        }
        JOINT rCollar
        {
          OFFSET -1.7069 20.075 5.0056
          CHANNELS 3 Zrotation Xrotation Yrotation
          JOINT rShldr
          {
            OFFSET -13.6458 -0.047 -4.849
            CHANNELS 3 Zrotation Xrotation Yrotation
            JOINT rForeArm
            {
              OFFSET -28.3255 -0.9759 2.2888
              CHANNELS 3 Zrotation Xrotation Yrotation
              JOINT rHand
              {
                OFFSET -22.1583 -0.53 10.8316
                CHANNELS 3 Zrotation Xrotation Yrotation
                JOINT rThumb1
                {
                  OFFSET -0.786 0.112 2.5817
                  CHANNELS 3 Zrotation Xrotation Yrotation
                  JOINT rThumb2
                  {
                    OFFSET -0.3601 -0.878 4.2331
                    CHANNELS 3 Zrotation Xrotation Yrotation
                    JOINT rThumb2_End
                    {
                      OFFSET -1.8127 -1.216 2.2227
                      CHANNELS 3 Zrotation Xrotation Yrotation
                      End Site
                      {
                        OFFSET -0.0181 -0.0122 0.0222
                      }
                    }
                  }
                }
                JOINT rCarpal1
                {
                  OFFSET -0.9571 1.114 1.7695
                  CHANNELS 3 Zrotation Xrotation Yrotation
                  JOINT rIndex1
                  {
                    OFFSET -4.1246 0.487 4.1451
                    CHANNELS 3 Zrotation Xrotation Yrotation
                    JOINT rIndex2
                    {
                      OFFSET -3.4052 -1.454 2.7682
                      CHANNELS 3 Zrotation Xrotation Yrotation
                      JOINT rIndex2_End
                      {
                        OFFSET -1.4531 -1.795 1.2713
                        CHANNELS 3 Zrotation Xrotation Yrotation
                        End Site
                        {
                          OFFSET -0.0145 -0.018 0.0127
                        }
                      }
                    }
                  }
                  JOINT rMid1
                  {
                    OFFSET -5.6954 0.21 2.1184
                    CHANNELS 3 Zrotation Xrotation Yrotation
                    JOINT rMid2
                    {
                      OFFSET -3.9766 -1.54 2.3863
                      CHANNELS 3 Zrotation Xrotation Yrotation
                      JOINT rMid2_End
                      {
                        OFFSET -1.4042 -1.926 1.125
                        CHANNELS 3 Zrotation Xrotation Yrotation
                        End Site
                        {
                          OFFSET -0.014 -0.0193 0.0113
                        }
                      }
                    }
                  }
                }
                JOINT rCarpal2
                {
                  OFFSET -2.0956 0.66 -0.3894
                  CHANNELS 3 Zrotation Xrotation Yrotation
                  JOINT rRing1
                  {
                    OFFSET -5.0395 -0.09 2.4971
                    CHANNELS 3 Zrotation Xrotation Yrotation
                    JOINT rRing2
                    {
                      OFFSET -3.7921 -1.552 1.4806
                      CHANNELS 3 Zrotation Xrotation Yrotation
                      JOINT rRing2_End
                      {
                        OFFSET -1.4655 -1.808 0.9609
                        CHANNELS 3 Zrotation Xrotation Yrotation
                        End Site
                        {
                          OFFSET -0.0147 -0.0181 0.0096
                        }
                      }
                    }
                  }
                  JOINT rPinky1
                  {
                    OFFSET -4.9141 -1.269 0.3592
                    CHANNELS 3 Zrotation Xrotation Yrotation
                    JOINT rPinky2
                    {
                      OFFSET -3.1477 -1.685 0.8462
                      CHANNELS 3 Zrotation Xrotation Yrotation
                      JOINT rPinky2_End
                      {
                        OFFSET -0.8055 -1.585 0.7955
                        CHANNELS 3 Zrotation Xrotation Yrotation
                        End Site
                        {
                          OFFSET -0.0081 -0.0158 0.008
                        }
                      }
                    }
                  }
                }
              }
            }
          }
        }
      }
    }
  }
  JOINT lThigh
  {
    OFFSET 8.367 -8.2066 0.5982
    CHANNELS 3 Zrotation Xrotation Yrotation
    JOINT lShin
    {
      OFFSET 2.1923 -43.463 -0.4932
      CHANNELS 3 Zrotation Xrotation Yrotation
      JOINT lFoot
      {
        OFFSET 0.7333 -45.8593 -2.6451
        CHANNELS 3 Zrotation Xrotation Yrotation
        End Site
        {
          OFFSET 2.6618 -4.2699 12.3931
        }
      }
    }
  }
  JOINT rThigh
  {
    OFFSET -8.367 -8.2066 0.5982
    CHANNELS 3 Zrotation Xrotation Yrotation
    JOINT rShin
    {
      OFFSET -2.1923 -43.463 -0.4931
      CHANNELS 3 Zrotation Xrotation Yrotation
      JOINT rFoot
      {
        OFFSET -0.7333 -45.8593 -2.6451
        CHANNELS 3 Zrotation Xrotation Yrotation
        End Site
        {
          OFFSET -2.6618 -4.2699 12.3931
        }
      }
    }
  }
}
MOTION
Frames:	4
Frame Time:	0.0333333
1.73679 57.6533 13.7527 0 33.3493 -0 -1.27926 -1.01651 -1.77605 -2.59001 -1.99263 -3.57516 -2.59001 -1.99262 -3.57516 -1.13195e-005 7.5925 -4.45419e-005 -0.061883 12.7181 0.009585 -11.1803 -4.50409 -39.7667 -39.97 -5.08083 29.1813 -19.0243 16.1823 -41.2244 19.9369 -40.8455 -16.6985 -2.55456e-007 -2.25818e-007 5.65229e-007 1.49089e-016 -6.95746e-016 -6.36111e-015 -4.47266e-016 1.98785e-016 -0 4.47266e-016 -9.93923e-017 -0 -2.55456e-007 -2.25818e-007 5.65229e-007 1.49089e-016 -6.95746e-016 -6.36111e-015 -4.47266e-016 1.98785e-016 -0 -2.55456e-007 -2.25818e-007 5.65229e-007 1.49089e-016 -6.95746e-016 -6.36111e-015 -4.47266e-016 1.98785e-016 -0 4.47266e-016 -9.93923e-017 -0 -2.55456e-007 -2.25818e-007 5.65229e-007 1.49089e-016 -6.95746e-016 -6.36111e-015 -4.47266e-016 1.98785e-016 -0 -2.55456e-007 -2.25818e-007 5.65229e-007 1.49089e-016 -6.95746e-016 -6.36111e-015 -4.47266e-016 1.98785e-016 -0 47.6255 -4.39823 -14.0615 32.3912 -3.82639 -20.4537 33.1666 19.5078 -6.7221 56.5335 -29.1409 22.4402 6.62086e-032 -1.59028e-015 2.38542e-015 -3.97569e-016 -1.59028e-015 -4.07509e-015 3.97569e-016 -3.18055e-015 -4.22417e-015 -7.95139e-016 1.59028e-015 2.23633e-015 1.59028e-015 -1.59028e-015 -3.8266e-015 0 0 -3.97569e-015 -7.95139e-016 -1.59028e-015 -3.97569e-015 1.59028e-015 -1.59028e-015 -3.8266e-015 0 0 -3.97569e-015 -7.95139e-016 -1.59028e-015 -3.97569e-015 -7.95139e-016 1.59028e-015 2.23633e-015 1.59028e-015 -1.59028e-015 -3.8266e-015 0 0 -3.97569e-015 -7.95139e-016 -1.59028e-015 -3.97569e-015 1.59028e-015 -1.59028e-015 -3.8266e-015 0 0 -3.97569e-015 -7.95139e-016 -1.59028e-015 -3.97569e-015 58.7589 -18.4632 21.18 3.89613 80.8691 1.43162 -54.4279 46.2381 64.2668 -58.7977 -18.437 -21.2588 -4.25393 80.8602 -1.06178 54.3236 46.29 -64.2023 
1.73684 57.6686 13.4701 0 33.9878 -0 -1.27927 -1.0165 -1.77605 -2.59002 -1.99264 -3.57518 -2.59003 -1.99263 -3.57518 3.40591e-005 6.63879 -5.74954e-006 -0.060172 11.1794 0.00958656 -11.0282 -4.78312 -39.8116 -39.98 -5.08573 29.1567 -19.1086 16.3793 -41.7691 20.3228 -40.8256 -16.3566 3.31043e-032 -5.96354e-016 3.18055e-015 7.45443e-016 -3.97569e-016 -0 4.47266e-016 -5.96354e-016 -3.18055e-015 -3.97569e-016 -1.98785e-016 3.18055e-015 3.47873e-016 -1.78906e-015 9.54166e-015 1.49089e-016 -5.96354e-016 -3.18055e-015 -6.4605e-016 -4.96962e-016 -3.18055e-015 3.47873e-016 -1.78906e-015 9.54166e-015 1.49089e-016 -5.96354e-016 -3.18055e-015 -6.4605e-016 -4.96962e-016 -3.18055e-015 -3.97569e-016 -1.98785e-016 3.18055e-015 3.47873e-016 -1.78906e-015 9.54166e-015 1.49089e-016 -5.96354e-016 -3.18055e-015 -6.4605e-016 -4.96962e-016 -3.18055e-015 3.47873e-016 -1.78906e-015 9.54166e-015 1.49089e-016 -5.96354e-016 -3.18055e-015 -6.4605e-016 -4.96962e-016 -3.18055e-015 47.6255 -4.39818 -14.0615 32.3611 -3.84142 -20.7476 33.1666 19.5078 -6.72211 56.5335 -29.1409 22.4402 -3.97569e-016 0 -2.6339e-015 0 0 -2.5842e-015 1.19271e-015 0 -2.5345e-015 -3.97569e-016 0 -2.6339e-015 2.78299e-015 -7.95139e-016 -2.33572e-015 -6.34499e-032 -1.59028e-015 -2.28602e-015 3.97569e-016 -7.95139e-016 8.44835e-016 2.78299e-015 -7.95139e-016 -2.33572e-015 -6.34499e-032 -1.59028e-015 -2.28602e-015 3.97569e-016 -7.95139e-016 8.44835e-016 -3.97569e-016 0 -2.6339e-015 2.78299e-015 -7.95139e-016 -2.33572e-015 -6.34499e-032 -1.59028e-015 -2.28602e-015 3.97569e-016 -7.95139e-016 8.44835e-016 2.78299e-015 -7.95139e-016 -2.33572e-015 -6.34499e-032 -1.59028e-015 -2.28602e-015 3.97569e-016 -7.95139e-016 8.44835e-016 58.8006 -19.3505 21.433 4.37025 81.3238 1.0085 -54.9101 46.009 64.5706 -58.8396 -19.3258 -21.5116 -4.74806 81.3153 -0.619299 54.808 46.0613 -64.5083 
1.73689 57.684 13.1862 0 34.6262 -0 -1.27927 -1.01652 -1.77605 -2.59002 -1.99262 -3.57518 -2.59002 -1.99263 -3.57518 3.58164e-005 5.68348 3.12962e-006 -0.0584426 9.63407 0.00959783 -10.8762 -5.06226 -39.8559 -39.99 -5.09061 29.1322 -19.1909 16.5769 -42.3138 20.7085 -40.8041 -16.015 4.47266e-016 -7.95139e-016 -3.18055e-015 4.96962e-017 -1.68967e-015 -9.54166e-015 -1.98785e-016 -1.19271e-015 -3.18055e-015 4.47266e-016 9.93923e-017 -3.18055e-015 -2.98177e-016 -1.2921e-015 6.36111e-015 -2.48481e-016 -6.95746e-016 -9.54166e-015 -2.48481e-016 -1.09332e-015 -0 -2.98177e-016 -1.2921e-015 6.36111e-015 -2.48481e-016 -6.95746e-016 -9.54166e-015 -2.48481e-016 -1.09332e-015 -0 4.47266e-016 9.93923e-017 -3.18055e-015 -2.98177e-016 -1.2921e-015 6.36111e-015 -2.48481e-016 -6.95746e-016 -9.54166e-015 -2.48481e-016 -1.09332e-015 -0 -2.98177e-016 -1.2921e-015 6.36111e-015 -2.48481e-016 -6.95746e-016 -9.54166e-015 -2.48481e-016 -1.09332e-015 -0 47.6255 -4.39819 -14.0615 32.331 -3.85629 -21.0415 33.1666 19.5078 -6.7221 56.5335 -29.1409 22.4402 -1.19271e-015 1.27222e-014 9.91439e-015 2.61943e-006 3.32078e-007 1.06986e-006 2.21197e-009 4.1954e-006 -7.82535e-007 -7.95139e-016 -7.95139e-016 2.98177e-016 3.97569e-016 1.27222e-014 9.91439e-015 2.61943e-006 3.32078e-007 1.06986e-006 2.21197e-009 4.1954e-006 -7.82535e-007 3.97569e-016 1.27222e-014 9.91439e-015 2.61943e-006 3.32078e-007 1.06986e-006 2.21197e-009 4.1954e-006 -7.82535e-007 -7.95139e-016 -7.95139e-016 2.98177e-016 3.97569e-016 1.27222e-014 9.91439e-015 2.61943e-006 3.32078e-007 1.06986e-006 2.21197e-009 4.1954e-006 -7.82535e-007 3.97569e-016 1.27222e-014 9.91439e-015 2.61943e-006 3.32078e-007 1.06986e-006 2.21197e-009 4.1954e-006 -7.82535e-007 58.8465 -20.2387 21.6881 4.89744 81.7782 0.533097 -55.3892 45.7786 64.8712 -58.8859 -20.2151 -21.7666 -5.29689 81.7696 -0.122508 55.2896 45.8313 -64.8114 
1.73695 57.6993 12.9011 0 35.2645 -0 -1.27927 -1.01651 -1.77605 -2.59002 -1.99264 -3.57518 -2.59003 -1.99263 -3.57518 0.000197763 4.72595 -5.12659e-006 -0.0559349 8.08258 0.00852785 -10.7245 -5.3415 -39.8995 -40 -5.09548 29.1076 -19.2713 16.7753 -42.8588 21.0938 -40.7808 -15.6737 -1.49089e-016 -9.93923e-017 3.18055e-015 4.96962e-016 2.98177e-016 3.18055e-015 -3.97569e-016 -5.96354e-016 3.18055e-015 -1.49089e-016 0 3.18055e-015 3.47873e-016 -4.96962e-016 3.18055e-015 -3.97569e-016 9.93923e-017 3.18055e-015 3.97569e-016 1.98785e-016 3.18055e-015 3.47873e-016 -4.96962e-016 3.18055e-015 -3.97569e-016 9.93923e-017 3.18055e-015 3.97569e-016 1.98785e-016 3.18055e-015 -1.49089e-016 0 3.18055e-015 3.47873e-016 -4.96962e-016 3.18055e-015 -3.97569e-016 9.93923e-017 3.18055e-015 3.97569e-016 1.98785e-016 3.18055e-015 3.47873e-016 -4.96962e-016 3.18055e-015 -3.97569e-016 9.93923e-017 3.18055e-015 3.97569e-016 1.98785e-016 3.18055e-015 47.6256 -4.39818 -14.0615 32.3006 -3.87101 -21.3354 33.1666 19.5078 -6.72212 56.5335 -29.1409 22.4402 -1.98785e-016 -2.38542e-015 9.88954e-015 -7.95139e-016 -1.59028e-015 6.65929e-015 -1.19271e-015 0 6.65929e-015 1.98785e-016 -7.95139e-016 -2.88238e-015 1.85522e-031 -1.59028e-015 6.68413e-015 -5.96354e-016 -7.95139e-016 6.65929e-015 -5.96354e-016 -7.95139e-016 6.70898e-015 1.85522e-031 -1.59028e-015 6.68413e-015 -5.96354e-016 -7.95139e-016 6.65929e-015 -5.96354e-016 -7.95139e-016 6.70898e-015 1.98785e-016 -7.95139e-016 -2.88238e-015 1.85522e-031 -1.59028e-015 6.68413e-015 -5.96354e-016 -7.95139e-016 6.65929e-015 -5.96354e-016 -7.95139e-016 6.70898e-015 1.85522e-031 -1.59028e-015 6.68413e-015 -5.96354e-016 -7.95139e-016 6.65929e-015 -5.96354e-016 -7.95139e-016 6.70898e-015 58.8967 -21.1275 21.9454 5.48752 82.2319 -0.0044758 -55.8655 45.547 65.169 -58.9363 -21.1051 -22.0237 -5.91114 82.2233 0.438774 55.7683 45.6001 -65.1114 
